# xmcd
#
# Track frame offsets:
#	150
#	16141
#	31793
#	46144
#	57526
#	70750
#	82527
#	97650
#	112147
#	126639
#	140388
#	159634
#	174768
#	194438
#	209052
#	223326
#	240839
#	256181
#	278773
#	299214
#	319038
#
# Disc length: 4431 seconds
#
# Revision: 1
# Processed by: cddbd v1.5PL3 Copyright (c) Steve Scherf et al.
# Submitted via: audiograbber 1.82.02
#
DISCID=2f114d15
DTITLE=Fausto Papetti - Hit Collection 2000
DYEAR=2000
DGENRE=pop
TTITLE0=Fillings
TTITLE1=Yesterday
TTITLE2=I just called to say "I love you"
TTITLE3=Love theme from "Godfather"
TTITLE4=Love story
TTITLE5=Stranger in the night
TTITLE6=Emmanuelle
TTITLE7=Woman in Love
TTITLE8=Life is life
TTITLE9=Adagio Di Albioni
TTITLE10=Reality
TTITLE11=Your eyes
TTITLE12=Dicitencello Vuje
TTITLE13=Mask the knife
TTITLE14=The windmills of your mind
TTITLE15=Aranjues Mon Amur
TTITLE16=Hill street blues
TTITLE17=Gipsy love
TTITLE18=Santa Lucia
TTITLE19=Jalousie
TTITLE20=Strauss valses
EXTD=
EXTT0=
EXTT1=
EXTT2=
EXTT3=
EXTT4=
EXTT5=
EXTT6=
EXTT7=
EXTT8=
EXTT9=
EXTT10=
EXTT11=
EXTT12=
EXTT13=
EXTT14=
EXTT15=
EXTT16=
EXTT17=
EXTT18=
EXTT19=
EXTT20=
PLAYORDER=
